<?xml version="1.0"?>
<svg xmlns="http://www.w3.org/2000/svg" id="Out_line" data-name="Out line" viewBox="0 0 512 512" width="512" height="512"><title>coffee-shop-business-portafilter_1</title><path d="M288,40v8H272V24a8.00008,8.00008,0,0,0-8-8H88a8.00008,8.00008,0,0,0-8,8V56a8.00008,8.00008,0,0,0,8,8h16v40a8.00008,8.00008,0,0,0,8,8h40v16.80493A40.068,40.068,0,0,0,120,168a8.00008,8.00008,0,0,0,8,8h96a8.00008,8.00008,0,0,0,8-8,40.068,40.068,0,0,0-32-39.19507V112h40a8.00008,8.00008,0,0,0,8-8V96h40v8a8.00008,8.00008,0,0,0,8,8H496V96H304V48H496V32H296A8.00008,8.00008,0,0,0,288,40ZM96,32H256V48H96Zm56,113.387V160H137.37109A24.10839,24.10839,0,0,1,152,145.387ZM214.62891,160H200V145.387A24.10839,24.10839,0,0,1,214.62891,160ZM184,160H168V112h16ZM120,96V64H232V96ZM248,80V64h40V80Z"/><path d="M152,240c0-15.53125-21.69629-40.49609-26.0459-45.34277a7.99934,7.99934,0,0,0-11.9082,0C109.69629,199.50391,88,224.46875,88,240a32,32,0,0,0,64,0Zm-48,0c0-5.09961,7.519-17.00879,16-27.61328,8.48193,10.60547,16,22.51367,16,27.61328a16,16,0,0,1-32,0Z"/><path d="M264,240c0-15.53125-21.69629-40.49609-26.0459-45.34277a7.99934,7.99934,0,0,0-11.9082,0C221.69629,199.50391,200,224.46875,200,240a32,32,0,0,0,64,0Zm-48,0c0-5.09961,7.519-17.00879,16-27.61328,8.48193,10.60547,16,22.51367,16,27.61328a16,16,0,0,1-32,0Z"/><path d="M16,456a40.04552,40.04552,0,0,0,40,40H296a40.04552,40.04552,0,0,0,40-40,8.00008,8.00008,0,0,0-8-8H253.18512a72.57991,72.57991,0,0,0,14.648-16H288a64,64,0,0,0,0-128h-8v-8a8.00008,8.00008,0,0,0-8-8H80a8.00008,8.00008,0,0,0-8,8v96a71.88429,71.88429,0,0,0,26.81488,56H24A8.00008,8.00008,0,0,0,16,456ZM288,320a48,48,0,0,1,0,96H275.8717a71.41705,71.41705,0,0,0,3.67316-16H288a32,32,0,0,0,0-64h-8V320Zm-8,64V352h8a16,16,0,0,1,0,32ZM88,392V304H264v88a56.06322,56.06322,0,0,1-56,56H144A56.06322,56.06322,0,0,1,88,392Zm230.62891,72A24.04118,24.04118,0,0,1,296,480H56a24.04118,24.04118,0,0,1-22.62891-16Z"/></svg>
